<?xml version="1.0" standalone="no"?>
<!DOCTYPE svg PUBLIC "-//W3C//DTD SVG 20010904//EN"
 "http://www.w3.org/TR/2001/REC-SVG-20010904/DTD/svg10.dtd">
<svg version="1.0" xmlns="http://www.w3.org/2000/svg"
 width="300.000000pt" height="300.000000pt" viewBox="0 0 300.000000 300.000000"
 preserveAspectRatio="xMidYMid meet">
<metadata>
Created by potrace 1.11, written by Peter Selinger 2001-2013
</metadata>
<g transform="translate(0.000000,300.000000) scale(0.100000,-0.100000)"
fill="#000000" stroke="none">
<path d="M130 1690 c0 -231 3 -421 8 -421 24 -4 89 -5 99 -1 9 3 13 33 13 101
l0 98 41 38 c40 37 57 38 63 4 1 -8 10 -31 19 -53 9 -21 17 -40 17 -41 0 -1 9
-23 20 -49 12 -25 21 -49 22 -53 0 -5 6 -17 14 -27 18 -27 124 -32 124 -7 0
10 -4 21 -8 27 -5 5 -26 52 -47 104 -21 52 -48 118 -60 145 -41 93 -42 89 19
152 l55 57 16 -37 c8 -20 22 -54 32 -74 9 -21 17 -40 18 -43 5 -13 20 -50 43
-100 14 -30 26 -59 27 -65 5 -18 68 -160 77 -169 4 -6 16 -11 27 -13 16 -2 27
17 65 106 25 60 46 114 46 120 0 6 4 11 8 11 5 0 9 6 10 13 1 20 46 127 54
127 4 0 16 -24 26 -52 11 -29 32 -80 47 -113 28 -61 47 -106 50 -115 10 -33
39 -90 46 -91 38 -6 43 0 84 93 23 53 40 100 37 103 -3 3 0 5 6 5 7 0 12 5 12
10 0 11 123 302 140 332 13 23 1 28 -62 27 l-53 -2 -63 -146 c-35 -80 -64
-150 -65 -156 -10 -44 -22 -32 -58 55 -22 51 -39 99 -39 106 0 8 -3 14 -8 14
-4 0 -16 24 -26 53 -24 70 -32 77 -77 77 -43 0 -36 11 -104 -157 -19 -45 -40
-97 -48 -115 -8 -18 -18 -42 -21 -52 -9 -26 -13 -19 -51 71 -17 43 -41 98 -52
123 -12 25 -29 64 -39 87 -15 37 -22 42 -53 45 -20 2 -57 0 -83 -3 -43 -5 -54
-12 -142 -102 -52 -53 -97 -97 -99 -97 -7 0 -14 61 -8 64 3 2 5 94 3 205 l-3
201 -59 0 -60 0 0 -420z"/>
<path d="M137 1123 c-4 -3 -7 -69 -7 -145 0 -131 1 -138 20 -138 20 0 26 21
21 72 -2 18 26 68 39 68 4 0 15 -19 24 -42 33 -81 41 -93 64 -94 26 -1 27 4 7
30 -8 11 -15 26 -15 33 0 7 -11 35 -24 62 l-23 49 43 46 c49 51 54 66 23 63
-11 -1 -48 -30 -81 -65 l-60 -64 2 48 c3 74 1 84 -13 84 -8 0 -17 -3 -20 -7z"/>
<path d="M364 1123 c-11 -4 -11 -259 0 -270 14 -14 154 -12 160 3 6 16 -27 28
-76 27 -21 -1 -39 2 -39 5 -1 4 -3 17 -4 28 -1 12 -5 26 -9 33 -8 13 -7 13 61
16 29 1 56 5 60 9 15 14 -28 34 -67 31 -24 -1 -44 3 -51 11 -6 8 -7 14 -2 14
5 0 9 12 9 28 -1 26 1 27 54 27 48 1 55 4 55 20 0 18 -7 20 -71 20 -39 1 -75
0 -80 -2z"/>
<path d="M555 1122 c-6 -4 -10 -60 -10 -142 l1 -135 72 -2 c67 -3 72 -1 72 18
0 14 -5 19 -15 16 -8 -4 -17 -3 -19 2 -3 4 -19 6 -35 3 l-30 -4 -3 123 c-3
117 -9 139 -33 121z"/>
<path d="M719 1122 c-1 -4 -2 -68 -3 -143 l-1 -137 72 1 c50 0 74 4 77 13 6
16 -28 28 -70 25 -32 -2 -53 12 -34 24 6 4 7 11 3 18 -4 6 -7 54 -7 106 -1 82
-3 94 -18 97 -10 1 -18 -1 -19 -4z"/>
<path d="M889 1116 c-1 -6 -2 -69 -3 -139 -1 -146 -8 -137 102 -135 53 1 62 4
62 20 0 19 -15 23 -81 19 -31 -2 -37 1 -41 22 -3 13 -1 33 3 44 6 17 15 20 53
18 37 -3 48 1 56 15 13 24 7 26 -55 25 -53 -1 -66 13 -57 61 3 18 10 21 58 20
30 -1 54 1 55 4 0 3 2 12 4 20 2 13 -11 16 -76 16 -48 0 -80 -4 -80 -10z"/>
<path d="M1083 1121 c-5 -3 -9 -67 -9 -141 1 -130 2 -135 22 -138 20 -3 22 1
22 50 0 75 0 75 23 74 15 -1 27 -15 43 -54 26 -62 39 -77 60 -69 14 6 14 10
-1 39 -30 61 -33 68 -33 84 0 8 7 22 15 30 29 30 14 93 -28 116 -24 13 -100
19 -114 9z m100 -49 c26 -32 9 -62 -38 -68 -26 -2 -27 0 -27 41 0 14 0 29 1
35 2 14 50 8 64 -8z"/>
<path d="M1250 1116 c0 -9 9 -35 19 -59 11 -23 34 -81 52 -129 18 -49 35 -88
39 -88 7 0 31 67 43 123 1 6 5 17 9 22 3 6 9 27 13 48 8 39 24 60 26 33 2 -18
3 -24 11 -46 3 -8 17 -51 31 -95 14 -44 29 -78 33 -75 10 5 41 78 75 178 13
37 27 69 31 72 4 3 3 11 -1 18 -6 10 -10 10 -18 0 -13 -17 -58 -141 -55 -150
1 -5 -3 -8 -8 -8 -5 0 -10 -11 -10 -25 0 -45 -17 -26 -39 43 -37 113 -52 152
-60 152 -6 0 -31 -64 -36 -90 0 -3 -3 -9 -6 -15 -3 -5 -12 -31 -19 -58 -7 -26
-16 -49 -19 -52 -4 -2 -24 41 -44 95 -37 95 -67 143 -67 106z"/>
<path d="M1668 1123 c-7 -14 -2 -273 5 -280 4 -3 10 -4 13 0 5 5 9 209 5 270
-1 17 -17 24 -23 10z"/>
<path d="M1737 1123 c-5 -8 -10 -167 -8 -249 l1 -32 67 2 c41 0 68 6 70 13 3
8 -11 10 -47 8 -39 -3 -52 0 -59 13 -4 9 -8 66 -7 125 2 102 -4 141 -17 120z"/>
<path d="M1909 1118 c-1 -7 -2 -72 -3 -144 l-1 -131 59 -2 c33 -1 63 -4 67 -7
4 -2 9 3 13 11 6 16 3 17 -64 19 l-45 1 -3 133 c-1 77 -7 132 -12 132 -6 0
-11 -6 -11 -12z"/>
<path d="M2086 1121 c-9 -14 -10 -257 -1 -270 16 -27 20 -1 20 128 0 132 -5
166 -19 142z"/>
<path d="M2226 1074 c-14 -31 -26 -58 -26 -61 0 -3 -13 -35 -30 -73 -33 -75
-39 -110 -17 -91 8 6 19 29 26 51 l12 40 57 0 c59 0 82 -11 82 -40 0 -22 30
-61 41 -54 6 3 6 10 1 17 -5 7 -24 50 -42 97 -19 47 -40 96 -47 110 -7 14 -13
30 -13 37 0 33 -21 17 -44 -33z m56 -55 l25 -55 -48 -1 c-27 -1 -51 3 -54 8
-4 5 -1 9 4 9 6 0 11 8 11 18 0 10 7 28 16 40 8 12 12 22 9 22 -3 0 -3 5 0 11
9 13 7 15 37 -52z"/>
<path d="M2409 1123 c-4 -22 -5 -260 -1 -270 2 -7 8 -13 13 -13 5 0 9 55 9
123 l0 122 33 -39 c17 -22 41 -50 52 -63 l20 -24 45 60 c25 33 48 60 51 61 4
0 6 -50 5 -111 -1 -78 3 -114 12 -121 6 -6 12 -7 13 -2 5 41 2 277 -3 280 -9
6 -45 -29 -88 -85 l-33 -43 -32 33 c-17 19 -41 49 -54 67 -21 30 -39 41 -42
25z"/>
<path d="M2728 1107 c-34 -27 -43 -69 -20 -92 9 -9 40 -29 67 -43 59 -32 70
-62 33 -93 -17 -16 -31 -19 -58 -14 -19 4 -38 12 -42 18 -5 7 -8 4 -8 -9 0
-37 91 -48 128 -16 24 21 34 68 20 95 -8 16 -58 44 -81 46 -24 1 -52 57 -39
77 18 27 49 34 86 19 41 -18 45 -14 14 15 -28 26 -66 25 -100 -3z"/>
<path d="M2873 871 c-2 -18 0 -19 18 -3 23 20 24 22 1 22 -10 0 -18 -8 -19
-19z"/>
<path d="M2895 861 c-3 -6 3 -9 14 -8 11 0 17 5 15 9 -7 11 -22 10 -29 -1z"/>
</g>
</svg>
